<svg xmlns="http://www.w3.org/2000/svg" width="297" height="263" viewBox="0 0 297 263" fill="none">
  <path d="M1.17613e-06 80.2505C-0.00367687 58.7105 8.61943 38.0735 23.9292 22.9827C39.239 7.89195 59.9495 -0.385113 81.4012 0.0137774C101.158 -0.0915594 120.212 6.42378 135.671 18.2695C142.795 23.7291 153.209 23.7291 160.334 18.2695C175.792 6.42378 194.846 -0.0915594 214.603 0.0137774C236.055 -0.385113 256.765 7.89195 272.075 22.9827C287.385 38.0735 296.008 58.7105 296.004 80.2505C296.004 155.032 212.643 212.6 158.119 258.725C152.299 263.648 143.727 263.625 137.925 258.679C83.4875 212.267 1.17613e-06 155.097 1.17613e-06 80.2505Z" fill="url(#paint0_linear_249_164)" />
  <defs>
    <linearGradient id="paint0_linear_249_164" x1="225.123" y1="15.5755" x2="95.897" y2="268.501" gradientUnits="userSpaceOnUse">
      <stop stop-color="#7A0C2D" />
      <stop offset="1" stop-color="#FF0033" />
    </linearGradient>
  </defs>
</svg>