<svg xmlns="http://www.w3.org/2000/svg" width="88" height="87" viewBox="0 0 88 87" fill="none">
  <path d="M6.22116 11.8535C9.96432 6.22983 15.8025 2.34143 22.4222 1.06315C29.042 -0.215122 35.8872 1.22409 41.4178 5.05698C47.4491 9.0267 51.6685 15.1772 53.2363 22.1801C53.4978 23.348 54.6554 24.1188 55.8337 23.9097C62.8996 22.6555 70.2015 24.1765 76.1902 28.2103C81.8595 31.835 85.8272 37.5956 87.2007 44.1962C88.5743 50.7968 87.2382 57.683 83.4931 63.3054C70.02 83.5397 36.382 83.3792 14.0781 86.2184C13.0698 86.3468 12.1251 85.7141 11.8592 84.733C5.9653 62.9864 -7.2628 32.1041 6.22116 11.8535Z" fill="url(#paint0_linear_257_189)" />
  <defs>
    <linearGradient id="paint0_linear_257_189" x1="76.2313" y1="34.1012" x2="-1.46692" y2="77.6653" gradientUnits="userSpaceOnUse">
      <stop stop-color="#7A0C2D" />
      <stop offset="1" stop-color="#FF0033" />
    </linearGradient>
  </defs>
</svg>